<svg width="275" height="308" viewBox="0 0 275 308" fill="none" xmlns="http://www.w3.org/2000/svg">
<g clip-path="url(#clip0_17_1135)">
<path d="M153.677 73.1923H151.984V26.8321C151.984 19.7158 149.155 12.8909 144.12 7.85894C139.084 2.82695 132.255 1.34998e-06 125.134 -7.62931e-06H26.8496C23.3237 -1.65215e-05 19.8322 0.694006 16.5747 2.04243C13.3172 3.39086 10.3573 5.36729 7.86406 7.85887C5.37085 10.3504 3.39312 13.3084 2.04379 16.5638C0.694469 19.8192 -2.27318e-05 23.3083 -3.05176e-05 26.832V281.168C-3.38543e-05 284.692 0.69444 288.181 2.04375 291.436C3.39307 294.692 5.3708 297.649 7.86401 300.141C10.3572 302.633 13.3171 304.609 16.5746 305.958C19.8322 307.306 23.3236 308 26.8495 308H125.134C132.255 308 139.084 305.173 144.12 300.141C149.155 295.109 151.984 288.284 151.984 281.168V106.192H153.677V73.1923Z" fill="#577187"/>
<path d="M126.217 6.98078H113.388C113.978 8.4263 114.203 9.99464 114.044 11.5476C113.884 13.1006 113.345 14.5906 112.474 15.8863C111.603 17.182 110.426 18.2437 109.047 18.9779C107.668 19.712 106.13 20.096 104.568 20.0962H48.2622C46.7 20.096 45.1619 19.712 43.7832 18.9779C42.4045 18.2437 41.2277 17.182 40.3563 15.8863C39.485 14.5906 38.9459 13.1006 38.7865 11.5476C38.6271 9.99461 38.8523 8.42627 39.4423 6.98074H27.4596C22.1418 6.98074 17.0417 9.09186 13.2814 12.8497C9.52115 16.6075 7.40864 21.7042 7.40863 27.0186V280.981C7.40863 286.296 9.52113 291.392 13.2814 295.15C17.0417 298.908 22.1417 301.019 27.4596 301.019H126.217C128.851 301.019 131.458 300.501 133.891 299.494C136.323 298.487 138.534 297.011 140.396 295.15C142.258 293.29 143.735 291.081 144.742 288.65C145.75 286.218 146.268 283.613 146.268 280.981V280.981V27.0186C146.268 24.3872 145.75 21.7816 144.742 19.3505C143.735 16.9194 142.258 14.7104 140.396 12.8497C138.534 10.989 136.323 9.51305 133.891 8.50606C131.458 7.49906 128.851 6.98078 126.217 6.98078V6.98078Z" fill="white"/>
<path d="M138.119 206.448H19.7056C19.1243 206.447 18.5669 206.216 18.1559 205.805C17.7448 205.394 17.5135 204.837 17.5128 204.256V174.902C17.5135 174.322 17.7448 173.765 18.1559 173.354C18.5669 172.943 19.1243 172.712 19.7056 172.711H138.119C138.701 172.712 139.258 172.943 139.669 173.354C140.08 173.765 140.311 174.322 140.312 174.902V204.257C140.311 204.838 140.08 205.395 139.669 205.805C139.258 206.216 138.701 206.447 138.119 206.448V206.448ZM19.7056 173.588C19.3568 173.588 19.0223 173.727 18.7756 173.973C18.529 174.22 18.3902 174.554 18.3899 174.902V204.257C18.3902 204.606 18.529 204.94 18.7756 205.186C19.0223 205.433 19.3568 205.571 19.7056 205.572H138.119C138.468 205.571 138.803 205.433 139.049 205.186C139.296 204.94 139.435 204.606 139.435 204.257V174.902C139.435 174.554 139.296 174.22 139.049 173.973C138.803 173.727 138.468 173.588 138.119 173.588H19.7056Z" fill="#577187"/>
<path d="M35.0552 198.783C40.1417 198.783 44.2651 194.662 44.2651 189.579C44.2651 184.496 40.1417 180.375 35.0552 180.375C29.9687 180.375 25.8453 184.496 25.8453 189.579C25.8453 194.662 29.9687 198.783 35.0552 198.783Z" fill="#577187"/>
<path d="M56.3259 183.444C55.9232 183.45 55.5393 183.615 55.2569 183.902C54.9745 184.189 54.8162 184.575 54.8162 184.978C54.8162 185.38 54.9745 185.766 55.2569 186.053C55.5393 186.34 55.9232 186.505 56.3259 186.511H128.69C129.097 186.519 129.49 186.365 129.784 186.083C130.077 185.801 130.246 185.414 130.254 185.007C130.262 184.6 130.108 184.207 129.825 183.914C129.543 183.621 129.156 183.452 128.749 183.444L128.74 183.444C128.723 183.443 128.706 183.443 128.69 183.444H56.3259Z" fill="#577187"/>
<path d="M56.3259 192.648C55.9232 192.654 55.5393 192.819 55.2569 193.106C54.9745 193.393 54.8162 193.779 54.8162 194.181C54.8162 194.584 54.9745 194.97 55.2569 195.257C55.5393 195.544 55.9232 195.709 56.3259 195.715H128.69C129.096 195.721 129.488 195.565 129.78 195.282C130.072 195 130.239 194.613 130.246 194.207C130.253 193.8 130.098 193.408 129.815 193.116C129.533 192.824 129.146 192.655 128.74 192.648C128.723 192.647 128.706 192.647 128.69 192.648H56.3259Z" fill="#577187"/>
<path d="M138.119 255.536H19.7056C19.1243 255.535 18.5669 255.304 18.1559 254.893C17.7448 254.482 17.5135 253.925 17.5128 253.344V223.99C17.5135 223.409 17.7448 222.852 18.1559 222.441C18.5669 222.031 19.1243 221.799 19.7056 221.799H138.119C138.701 221.799 139.258 222.031 139.669 222.441C140.08 222.852 140.311 223.409 140.312 223.99V253.345C140.311 253.925 140.08 254.482 139.669 254.893C139.258 255.304 138.701 255.535 138.119 255.536V255.536ZM19.7056 222.675C19.3568 222.676 19.0223 222.814 18.7756 223.061C18.529 223.307 18.3902 223.642 18.3899 223.99V253.345C18.3902 253.693 18.529 254.027 18.7756 254.274C19.0223 254.52 19.3568 254.659 19.7056 254.659H138.119C138.468 254.659 138.803 254.52 139.049 254.274C139.296 254.027 139.435 253.693 139.435 253.345V223.99C139.435 223.642 139.296 223.307 139.049 223.061C138.803 222.814 138.468 222.676 138.119 222.675H19.7056Z" fill="#577187"/>
<path d="M35.0552 247.871C40.1417 247.871 44.2651 243.75 44.2651 238.667C44.2651 233.584 40.1417 229.463 35.0552 229.463C29.9687 229.463 25.8453 233.584 25.8453 238.667C25.8453 243.75 29.9687 247.871 35.0552 247.871Z" fill="#577187"/>
<path d="M56.3259 232.531C55.9232 232.538 55.5393 232.703 55.2569 232.99C54.9745 233.276 54.8162 233.663 54.8162 234.065C54.8162 234.468 54.9745 234.854 55.2569 235.141C55.5393 235.428 55.9232 235.592 56.3259 235.599H128.69C129.096 235.605 129.488 235.449 129.78 235.166C130.072 234.883 130.239 234.496 130.246 234.09C130.253 233.684 130.098 233.292 129.815 233C129.533 232.707 129.146 232.539 128.74 232.531C128.723 232.531 128.706 232.531 128.69 232.531H56.3259Z" fill="#577187"/>
<path d="M56.3259 241.735C55.9232 241.742 55.5393 241.906 55.2569 242.193C54.9745 242.48 54.8162 242.867 54.8162 243.269C54.8162 243.672 54.9745 244.058 55.2569 244.345C55.5393 244.632 55.9232 244.796 56.3259 244.803H128.69C129.096 244.809 129.488 244.653 129.78 244.37C130.072 244.087 130.239 243.7 130.246 243.294C130.253 242.888 130.098 242.496 129.815 242.204C129.533 241.911 129.146 241.743 128.74 241.735C128.723 241.735 128.706 241.735 128.69 241.735H56.3259Z" fill="#577187"/>
<path d="M76.4205 145.534C65.3752 145.538 54.7804 141.158 46.9669 133.356C39.1534 125.554 34.7612 114.97 34.7566 103.932V103.897C34.7566 103.81 34.7566 103.718 34.7617 103.631C34.8887 80.8289 53.5779 62.2599 76.4205 62.2599C87.4704 62.2586 98.0683 66.6441 105.883 74.4516C113.697 82.2591 118.088 92.8491 118.089 103.892C118.09 114.935 113.702 125.526 105.889 133.335C98.0768 141.144 87.4799 145.532 76.43 145.533H76.4205V145.534ZM76.4205 63.1355C65.6523 63.1596 55.3287 67.4292 47.6926 75.0166C40.0566 82.604 35.725 92.8962 35.6392 103.657C35.6345 103.75 35.6345 103.826 35.6345 103.896C35.6335 111.958 38.0249 119.84 42.5064 126.545C46.9878 133.249 53.358 138.475 60.8113 141.561C68.2647 144.647 76.4665 145.456 84.3795 143.884C92.2926 142.312 99.5615 138.43 105.267 132.73C110.973 127.029 114.859 119.766 116.434 111.859C118.009 103.951 117.202 95.7546 114.115 88.3053C111.029 80.856 105.801 74.4887 99.0934 70.0085C92.3858 65.5283 84.4994 63.1365 76.4315 63.1355H76.4205V63.1355Z" fill="#577187"/>
<path d="M133.445 195.877C142.8 195.877 150.384 188.298 150.384 178.949C150.384 169.6 142.8 162.021 133.445 162.021C124.09 162.021 116.506 169.6 116.506 178.949C116.506 188.298 124.09 195.877 133.445 195.877Z" fill="white"/>
<path d="M127.562 186.565C127.533 186.565 127.504 186.565 127.475 186.564H118.37C117.215 186.546 116.113 186.075 115.302 185.252C114.491 184.429 114.037 183.321 114.036 182.166C114.036 181.012 114.49 179.903 115.3 179.08C116.11 178.256 117.211 177.784 118.366 177.765H127.479C127.524 177.764 127.572 177.764 127.62 177.765C128.783 177.781 129.891 178.256 130.705 179.085C131.518 179.915 131.97 181.032 131.963 182.194C131.955 183.356 131.488 184.467 130.664 185.286C129.839 186.105 128.724 186.565 127.562 186.565V186.565Z" fill="#64B6AC"/>
<path d="M275 306.97H137.778V307.919H275V306.97Z" fill="#293241"/>
<path d="M146.233 226.725C146.125 226.557 146.035 226.378 145.966 226.192L143.779 220.34C143.525 219.657 143.552 218.9 143.855 218.237C144.158 217.573 144.712 217.057 145.395 216.801L194.198 198.59C194.882 198.335 195.639 198.362 196.303 198.665C196.967 198.967 197.484 199.521 197.74 200.204L199.926 206.056C200.052 206.394 200.111 206.754 200.098 207.115C200.085 207.476 200.002 207.831 199.852 208.16C199.702 208.489 199.488 208.785 199.224 209.031C198.959 209.277 198.649 209.469 198.31 209.595L149.508 227.806C148.92 228.025 148.275 228.038 147.68 227.841C147.084 227.644 146.574 227.25 146.233 226.725V226.725Z" fill="#64B6AC"/>
<path d="M194.043 197.077L174.197 204.986C173.572 205.174 173.043 205.595 172.72 206.163C172.397 206.73 172.305 207.4 172.464 208.033L174.767 217.248C174.858 217.612 175.028 217.952 175.266 218.242C175.504 218.532 175.803 218.766 176.143 218.927C176.482 219.088 176.852 219.172 177.228 219.172C177.603 219.173 177.974 219.09 178.314 218.93L198.214 209.57C198.845 209.333 199.356 208.857 199.636 208.245C199.915 207.633 199.941 206.935 199.707 206.304L197.315 198.569C197.078 197.938 196.601 197.427 195.988 197.147C195.374 196.867 194.675 196.842 194.043 197.077V197.077Z" fill="#293241"/>
<path d="M230.361 254.49C229.738 254.562 229.109 254.419 228.579 254.085C228.048 253.751 227.647 253.246 227.443 252.653L210.455 203.439C210.337 203.098 210.288 202.736 210.31 202.376C210.331 202.015 210.424 201.662 210.582 201.338C210.741 201.013 210.961 200.722 211.232 200.483C211.503 200.243 211.818 200.06 212.159 199.942L218.068 197.905C218.758 197.667 219.515 197.713 220.171 198.033C220.827 198.352 221.329 198.919 221.568 199.608L238.556 248.823C238.793 249.512 238.747 250.268 238.427 250.924C238.107 251.579 237.541 252.082 236.851 252.32L230.942 254.357C230.754 254.422 230.559 254.467 230.361 254.49V254.49Z" fill="#64B6AC"/>
<path d="M222.834 198.766L229.354 219.099C229.607 219.701 229.618 220.377 229.385 220.986C229.152 221.596 228.694 222.093 228.104 222.374L219.524 226.461C219.186 226.622 218.815 226.707 218.44 226.708C218.064 226.709 217.693 226.627 217.353 226.468C217.013 226.309 216.713 226.076 216.473 225.787C216.234 225.498 216.062 225.159 215.969 224.796L210.536 203.497C210.317 202.86 210.36 202.163 210.654 201.558C210.949 200.953 211.471 200.489 212.107 200.268L219.601 197.192C220.238 196.973 220.937 197.016 221.543 197.311C222.149 197.606 222.614 198.129 222.834 198.766V198.766Z" fill="#293241"/>
<path d="M203.093 307.249H196.843C196.113 307.248 195.414 306.958 194.898 306.442C194.382 305.927 194.091 305.227 194.091 304.498V252.437C194.091 251.708 194.382 251.009 194.898 250.493C195.414 249.978 196.113 249.688 196.843 249.687H203.093C203.823 249.688 204.523 249.978 205.039 250.493C205.555 251.009 205.845 251.708 205.846 252.437V304.498C205.845 305.227 205.555 305.927 205.039 306.442C204.523 306.958 203.823 307.248 203.093 307.249Z" fill="#293241"/>
<path d="M215.456 307.249H209.205C208.476 307.248 207.776 306.958 207.26 306.442C206.744 305.927 206.454 305.227 206.453 304.498V252.437C206.454 251.708 206.744 251.009 207.26 250.493C207.776 249.978 208.476 249.688 209.205 249.687H215.456C216.186 249.688 216.885 249.978 217.401 250.493C217.917 251.009 218.208 251.708 218.209 252.437V304.498C218.208 305.227 217.917 305.927 217.401 306.442C216.885 306.958 216.186 307.248 215.456 307.249Z" fill="#293241"/>
<path d="M220.607 258.558H192.207C191.421 258.557 190.668 258.245 190.112 257.689C189.556 257.134 189.244 256.381 189.243 255.595V209.49C189.243 204.94 191.051 200.577 194.27 197.361C197.489 194.144 201.855 192.337 206.407 192.337C210.959 192.337 215.325 194.144 218.544 197.361C221.763 200.577 223.571 204.94 223.571 209.49V255.595C223.57 256.381 223.258 257.134 222.702 257.689C222.146 258.245 221.393 258.557 220.607 258.558Z" fill="#BABABA"/>
<path d="M224.882 269.836H210.483V188.515L210.751 188.588C214.806 189.7 218.384 192.111 220.936 195.451C223.489 198.791 224.875 202.875 224.882 207.077V269.836Z" fill="#293241"/>
<path d="M201.161 269.836H186.762V207.077C186.769 202.875 188.155 198.791 190.708 195.451C193.26 192.111 196.838 189.7 200.893 188.588L201.161 188.515V269.836Z" fill="#293241"/>
<path d="M206.192 182.8C218.709 182.8 228.857 172.659 228.857 160.15C228.857 147.641 218.709 137.5 206.192 137.5C193.675 137.5 183.528 147.641 183.528 160.15C183.528 172.659 193.675 182.8 206.192 182.8Z" fill="#64B6AC"/>
<path d="M231.816 154.935C231.816 154.935 233.086 119.809 216.571 131.236C216.571 131.236 207.042 99.2837 183.751 147.106L176.975 153.877C176.975 153.877 207.466 149.645 235.839 162.765L231.816 154.935Z" fill="#293241"/>
<path d="M206.538 171.367C205.138 171.328 203.396 171.279 202.053 170.3C201.654 169.996 201.325 169.608 201.091 169.164C200.857 168.72 200.723 168.231 200.698 167.729C200.674 167.373 200.732 167.016 200.869 166.686C201.006 166.357 201.217 166.063 201.486 165.828C202.187 165.236 203.211 165.097 204.314 165.421L203.171 157.073L204.01 156.958L205.354 166.772L204.653 166.451C203.841 166.079 202.726 165.889 202.033 166.474C201.862 166.627 201.73 166.817 201.645 167.03C201.561 167.243 201.526 167.472 201.544 167.7C201.565 168.073 201.666 168.437 201.84 168.768C202.014 169.098 202.257 169.388 202.553 169.616C203.597 170.378 204.986 170.477 206.561 170.521L206.538 171.367Z" fill="#293241"/>
<path d="M199.021 157.793H194.46V158.64H199.021V157.793Z" fill="#293241"/>
<path d="M213.42 157.793H208.858V158.64H213.42V157.793Z" fill="#293241"/>
<path d="M155.66 228.884C155.049 229.167 154.35 229.196 153.717 228.965C153.084 228.733 152.569 228.26 152.286 227.649L137.671 196.169C137.387 195.558 137.358 194.86 137.59 194.228C137.822 193.595 138.295 193.081 138.906 192.797C139.518 192.514 140.217 192.485 140.849 192.716C141.482 192.948 141.997 193.421 142.281 194.032L156.895 225.512C157.179 226.123 157.208 226.821 156.976 227.453C156.745 228.086 156.271 228.6 155.66 228.884Z" fill="#293241"/>
<path d="M140.644 195.011C140.195 195.011 139.764 194.833 139.447 194.515C139.129 194.198 138.95 193.767 138.95 193.318V171.755H117.776C117.327 171.755 116.896 171.576 116.579 171.259C116.261 170.941 116.082 170.511 116.082 170.062C116.082 169.613 116.261 169.182 116.579 168.865C116.896 168.547 117.327 168.369 117.776 168.369H140.644C141.094 168.369 141.524 168.547 141.842 168.865C142.16 169.182 142.338 169.613 142.338 170.062V193.318C142.338 193.767 142.16 194.198 141.842 194.515C141.524 194.833 141.094 195.011 140.644 195.011V195.011Z" fill="#64B6AC"/>
<path d="M141.045 197.404C137.398 199.095 133.331 199.667 129.359 199.048C125.387 198.429 121.687 196.647 118.728 193.927C115.769 191.207 113.684 187.671 112.736 183.767C111.788 179.863 112.02 175.765 113.402 171.992C114.784 168.219 117.255 164.941 120.502 162.572C123.749 160.202 127.626 158.848 131.643 158.681C135.659 158.513 139.636 159.54 143.069 161.631C146.502 163.721 149.237 166.783 150.929 170.427C153.192 175.315 153.422 180.901 151.569 185.958C149.716 191.015 145.931 195.132 141.045 197.404V197.404ZM126.074 165.156C123.338 166.425 121.041 168.475 119.472 171.048C117.903 173.621 117.132 176.601 117.258 179.612C117.384 182.623 118.4 185.528 120.178 187.962C121.956 190.395 124.417 192.247 127.248 193.283C130.079 194.319 133.155 194.493 136.085 193.783C139.015 193.072 141.669 191.509 143.71 189.291C145.751 187.074 147.089 184.301 147.553 181.324C148.018 178.346 147.588 175.298 146.319 172.565C144.614 168.902 141.525 166.066 137.729 164.677C133.934 163.288 129.742 163.461 126.074 165.156V165.156Z" fill="#293241"/>
</g>
<defs>
<clipPath id="clip0_17_1135">
<rect width="275" height="308" fill="white"/>
</clipPath>
</defs>
</svg>
