<svg xmlns="http://www.w3.org/2000/svg" width="70" height="70" viewBox="0 0 70 70">
  <path id="empty_ic" d="M36.285,70h-.917a14.223,14.223,0,0,0-1.9-1.032Q21.9,62.88,10.29,56.866a2.346,2.346,0,0,1-1.446-2.454c.07-4.041,0-8.078.045-12.119a1.719,1.719,0,0,0-1.064-1.822c-1.782-.9-3.521-1.892-5.268-2.861C.928,36.7.889,36.445,2.1,34.925c2.3-2.886,4.6-5.772,6.965-8.745-3.091-3.047-6.08-6-9.069-8.945v-.958L27.514,0h.609c2.608,3.735,5.215,7.474,7.934,11.375C37.688,8.18,39.217,5.259,40.67,2.3c.584-1.19,1.148-1.46,2.369-.765,4.984,2.844,10.042,5.557,15.053,8.352C62.076,12.1,66.035,14.355,70,16.6v.958c-2.786,2.763-5.576,5.529-8.4,8.338,2.569,3.205,4.994,6.281,7.472,9.307.8.983.742,1.618-.389,2.215-1.862.976-3.668,2.068-5.533,3.033a1.757,1.757,0,0,0-1.057,1.847c.042,4.146-.018,8.3.042,12.442A1.991,1.991,0,0,1,60.9,56.807q-11.571,6.072-23.1,12.228A12.924,12.924,0,0,0,36.285,70M58.81,26.418c-.326-.218-.514-.372-.724-.484-7.028-3.823-14.053-7.66-21.112-11.424a2.374,2.374,0,0,0-1.925.035c-7.3,3.721-14.574,7.506-21.85,11.283-.326.165-.62.4-1.082.7,7.7,4.223,15.2,8.359,22.732,12.428a2.064,2.064,0,0,0,1.645-.211q10.684-5.8,21.329-11.687c.3-.165.585-.372.987-.635m-56.525-9.3c2.5,2.419,4.872,4.652,7.157,6.983a1.669,1.669,0,0,0,2.338.414c7.2-3.8,14.431-7.527,21.651-11.283.385-.2.752-.442,1.211-.716C32.179,9,29.792,5.6,27.4,2.2c-8.414,5-16.66,9.893-25.116,14.917M34.237,40.742c-8.074-4.434-15.974-8.77-23.968-13.155C8.015,30.4,5.814,33.148,3.51,36.027c8.564,4.736,16.979,9.384,25.508,14.1,1.732-3.118,3.434-6.172,5.218-9.384m2.447,0c1.778,3.2,3.493,6.281,5.215,9.377,8.6-4.75,17.006-9.4,25.511-14.1-2.324-2.9-4.5-5.621-6.758-8.436-8,4.4-15.936,8.745-23.968,13.158M42.245,3.191C40.639,6.33,39.064,9.4,37.422,12.6L60.1,24.88c2.429-2.668,4.788-5.263,7.154-7.86q-12.3-6.8-25.007-13.829" fill="#577187"/>
</svg>
