<svg xmlns="http://www.w3.org/2000/svg" width="20" height="20" viewBox="0 0 20 20">
  <path id="language_ic" d="M2.941,13.684v2.105a2.633,2.633,0,0,0,.49,1.474,1.539,1.539,0,0,0,1.275.632H7.843V20H4.9a3.451,3.451,0,0,1-2.745-1.263A4.826,4.826,0,0,1,.98,15.789V13.684ZM15.686,8.421,20,20H17.843l-1.176-3.158h-4.02L11.471,20H9.314L13.627,8.421Zm-.98,3.053-1.176,3.263H15.98ZM5.882,0V2.105H9.8V9.474H5.882v3.158H3.922V9.474H0V2.105H3.922V0Zm8.824,1.053a3.451,3.451,0,0,1,2.745,1.263,4.826,4.826,0,0,1,1.176,2.947V7.368H16.667V5.263a2.156,2.156,0,0,0-.588-1.474,1.873,1.873,0,0,0-1.373-.632H11.765V1.053ZM3.922,4.211H1.961V7.368H3.922Zm3.922,0H5.882V7.368H7.843Z" fill="#293241"/>
</svg>
